<svg 
 xmlns="http://www.w3.org/2000/svg"
 xmlns:xlink="http://www.w3.org/1999/xlink"
 width="16px" height="16px">
<path fill-rule="evenodd"  fill="rgb(136, 136, 136)"
 d="M15.587,2.547 L10.140,7.993 L15.578,13.431 C16.145,13.998 16.124,14.938 15.529,15.531 C14.936,16.125 13.996,16.146 13.429,15.579 L7.991,10.142 L2.562,15.571 C1.995,16.137 1.054,16.117 0.461,15.522 C-0.133,14.930 -0.154,13.989 0.413,13.421 L5.841,7.993 L0.403,2.556 C-0.164,1.987 -0.142,1.046 0.452,0.454 C1.045,-0.141 1.984,-0.161 2.552,0.406 L7.990,5.844 L13.438,0.396 C14.005,-0.171 14.946,-0.149 15.539,0.445 C16.132,1.037 16.154,1.977 15.587,2.547 Z"/>
</svg>