<svg 
 xmlns="http://www.w3.org/2000/svg"
 xmlns:xlink="http://www.w3.org/1999/xlink"
 width="33px" height="33px">
<path fill-rule="evenodd"  stroke="rgb(231, 231, 231)" stroke-width="2px" stroke-linecap="butt" stroke-linejoin="miter" fill="rgb(255, 255, 255)"
 d="M16.000,1.000 C24.284,1.000 31.000,7.716 31.000,16.000 L31.000,16.000 C31.000,24.284 24.284,31.000 16.000,31.000 C7.716,31.000 1.000,24.284 1.000,16.000 L1.000,16.000 C1.000,7.716 7.716,1.000 16.000,1.000 Z"/>
<path fill-rule="evenodd"  fill="rgb(244, 63, 54)"
 d="M20.578,17.047 L15.330,21.563 C14.795,22.117 13.928,22.117 13.393,21.563 C12.859,21.009 12.859,20.111 13.393,19.558 L17.545,15.985 L13.393,12.413 C12.859,11.859 12.859,10.962 13.393,10.408 C13.928,9.854 14.795,9.854 15.330,10.408 L20.578,14.924 C20.860,15.216 20.983,15.603 20.968,15.985 C20.983,16.368 20.860,16.755 20.578,17.047 Z"/>
</svg>