<svg 
 xmlns="http://www.w3.org/2000/svg"
 xmlns:xlink="http://www.w3.org/1999/xlink"
 width="10px" height="16px">
<path fill-rule="evenodd"  fill="rgb(136, 136, 136)"
 d="M9.625,9.005 C9.473,9.164 9.289,9.257 9.096,9.318 L2.135,15.605 C1.644,16.120 0.848,16.120 0.356,15.605 C-0.135,15.089 -0.135,14.253 0.356,13.737 L6.722,7.989 L0.358,2.241 C-0.134,1.725 -0.134,0.890 0.358,0.374 C0.849,-0.142 1.645,-0.142 2.136,0.374 L9.098,6.661 C9.289,6.722 9.473,6.815 9.624,6.974 C9.889,7.252 9.999,7.622 9.978,7.986 C10.001,8.352 9.892,8.725 9.625,9.005 Z"/>
</svg>