<svg 
 xmlns="http://www.w3.org/2000/svg"
 xmlns:xlink="http://www.w3.org/1999/xlink"
 width="34px" height="34px">
<path fill-rule="evenodd"  fill="rgb(231, 231, 231)"
 d="M17.000,0.000 C26.389,0.000 34.000,7.611 34.000,17.000 C34.000,26.389 26.389,34.000 17.000,34.000 C7.611,34.000 0.000,26.389 0.000,17.000 C0.000,7.611 7.611,0.000 17.000,0.000 Z"/>
<path fill-rule="evenodd"  fill="rgb(255, 255, 255)"
 d="M17.000,2.000 C25.284,2.000 32.000,8.716 32.000,17.000 C32.000,25.284 25.284,32.000 17.000,32.000 C8.716,32.000 2.000,25.284 2.000,17.000 C2.000,8.716 8.716,2.000 17.000,2.000 Z"/>
<path fill-rule="evenodd"  fill="rgb(136, 136, 136)"
 d="M23.593,16.329 L18.077,21.577 C17.785,21.859 17.398,21.983 17.015,21.967 C16.633,21.983 16.246,21.859 15.954,21.577 L10.438,16.329 C9.884,15.795 9.884,14.928 10.438,14.393 C10.992,13.859 11.889,13.859 12.443,14.393 L17.015,18.743 L21.587,14.393 C22.141,13.859 23.039,13.859 23.593,14.393 C24.147,14.928 24.147,15.795 23.593,16.329 Z"/>
</svg>