<svg 
 xmlns="http://www.w3.org/2000/svg"
 xmlns:xlink="http://www.w3.org/1999/xlink"
 width="13px" height="20px">
<path fill-rule="evenodd"  fill="rgb(136, 136, 136)"
 d="M11.612,10.985 C11.597,11.001 11.576,11.006 11.560,11.021 L2.333,19.569 C1.798,20.119 0.931,20.119 0.398,19.569 C-0.136,19.019 -0.136,18.128 0.398,17.578 L8.595,9.983 L0.398,2.388 C-0.136,1.838 -0.136,0.947 0.398,0.398 C0.931,-0.152 1.798,-0.152 2.333,0.398 L11.564,8.949 C11.579,8.963 11.598,8.967 11.612,8.982 C11.881,9.258 12.013,9.621 12.011,9.983 C12.013,10.346 11.881,10.708 11.612,10.985 Z"/>
</svg>