<svg 
 xmlns="http://www.w3.org/2000/svg"
 xmlns:xlink="http://www.w3.org/1999/xlink"
 width="25.25px" height="28.5px">
<path fill-rule="evenodd"  stroke="rgb(255, 255, 255)" stroke-width="2.5px" stroke-linecap="butt" stroke-linejoin="miter" fill="none"
 d="M6.006,11.263 L6.006,7.562 C6.006,4.076 8.690,1.250 12.000,1.250 C15.310,1.250 17.993,4.076 17.993,7.562 L17.993,11.263 "/>
<path fill-rule="evenodd"  fill="rgb(255, 255, 255)"
 d="M22.269,27.250 L1.730,27.250 C0.774,27.250 -0.000,26.452 -0.000,25.468 L1.153,11.031 C1.153,10.048 1.928,9.250 2.884,9.250 L21.115,9.250 C22.071,9.250 22.846,10.048 22.846,11.031 L24.000,25.468 C24.000,26.452 23.225,27.250 22.269,27.250 ZM9.231,15.239 C9.231,14.219 8.404,13.393 7.384,13.393 C6.365,13.393 5.538,14.219 5.538,15.239 L5.538,15.261 C5.538,16.280 6.365,17.107 7.384,17.107 C8.404,17.107 9.231,16.280 9.231,15.261 L9.231,15.239 ZM18.462,15.239 C18.462,14.219 17.635,13.393 16.615,13.393 C15.596,13.393 14.769,14.219 14.769,15.239 L14.769,15.261 C14.769,16.280 15.596,17.107 16.615,17.107 C17.635,17.107 18.462,16.280 18.462,15.261 L18.462,15.239 Z"/>
</svg>