<svg 
 xmlns="http://www.w3.org/2000/svg"
 xmlns:xlink="http://www.w3.org/1999/xlink"
 width="20px" height="13px">
<path fill-rule="evenodd"  fill="rgb(119, 119, 119)"
 d="M19.570,2.333 L11.021,11.560 C11.006,11.576 11.001,11.597 10.985,11.612 C10.709,11.880 10.346,12.013 9.984,12.011 C9.621,12.013 9.259,11.880 8.982,11.612 C8.967,11.598 8.963,11.578 8.949,11.563 L0.398,2.333 C-0.152,1.798 -0.152,0.931 0.398,0.398 C0.948,-0.136 1.839,-0.136 2.388,0.398 L9.984,8.595 L17.578,0.398 C18.128,-0.136 19.019,-0.136 19.570,0.398 C20.119,0.931 20.119,1.798 19.570,2.333 Z"/>
</svg>