<svg 
 xmlns="http://www.w3.org/2000/svg"
 xmlns:xlink="http://www.w3.org/1999/xlink"
 width="22.7px" height="21.7px">
<path fill-rule="evenodd"  stroke="rgb(102, 102, 102)" stroke-width="0.5px" stroke-linecap="round" stroke-linejoin="round" fill="rgb(102, 102, 102)"
 d="M18.885,16.387 L15.020,14.039 C14.819,13.933 14.525,13.982 14.366,14.146 L13.228,15.319 C13.069,15.483 12.754,15.619 12.529,15.622 C12.529,15.622 11.076,15.639 8.374,12.854 C5.673,10.068 5.686,8.565 5.686,8.565 C5.688,8.333 5.820,8.008 5.979,7.844 L6.948,6.845 C7.108,6.681 7.161,6.374 7.067,6.162 L4.935,2.028 C4.841,1.817 4.634,1.779 4.475,1.943 L1.831,4.662 C1.671,4.826 1.516,5.148 1.486,5.379 C1.486,5.379 0.971,9.352 6.371,14.919 C11.771,20.487 15.624,19.955 15.624,19.955 C15.847,19.924 16.161,19.764 16.320,19.600 L18.960,16.878 C19.120,16.713 19.086,16.492 18.885,16.387 Z"/>
<path fill-rule="evenodd"  stroke="rgb(102, 102, 102)" stroke-width="0.4px" stroke-linecap="round" stroke-linejoin="round" fill="rgb(102, 102, 102)"
 d="M16.347,4.349 C18.360,6.205 19.536,8.717 19.814,11.257 L21.088,11.186 C20.764,8.299 19.418,5.444 17.125,3.330 C14.832,1.216 12.039,0.255 9.395,0.407 L9.552,1.798 C11.875,1.655 14.334,2.493 16.347,4.349 ZM14.013,7.405 C15.195,8.495 15.861,9.981 15.994,11.472 L17.266,11.400 C17.086,9.560 16.251,7.733 14.791,6.386 C13.330,5.040 11.548,4.455 9.865,4.576 L10.023,5.968 C11.383,5.853 12.830,6.315 14.013,7.405 Z"/>
</svg>