<svg 
 xmlns="http://www.w3.org/2000/svg"
 xmlns:xlink="http://www.w3.org/1999/xlink"
 width="33px" height="33px">
<path fill-rule="evenodd"  stroke="rgb(221, 221, 221)" stroke-width="2px" stroke-linecap="butt" stroke-linejoin="miter" fill="rgb(255, 255, 255)"
 d="M16.000,1.000 C24.284,1.000 30.999,7.716 30.999,16.000 C30.999,24.284 24.284,31.000 16.000,31.000 C7.715,31.000 1.000,24.284 1.000,16.000 C1.000,7.716 7.715,1.000 16.000,1.000 Z"/>
<path fill-rule="evenodd"  fill="rgb(122, 122, 122)"
 d="M21.561,19.607 C21.008,20.141 20.110,20.141 19.556,19.607 L15.983,15.455 L12.411,19.607 C11.858,20.141 10.960,20.141 10.406,19.607 C9.852,19.072 9.852,18.205 10.406,17.670 L14.922,12.422 C15.214,12.140 15.601,12.017 15.984,12.032 C16.366,12.017 16.753,12.140 17.045,12.422 L21.561,17.670 C22.115,18.205 22.115,19.072 21.561,19.607 Z"/>
</svg>