<svg 
 xmlns="http://www.w3.org/2000/svg"
 xmlns:xlink="http://www.w3.org/1999/xlink"
 width="33px" height="33px">
<path fill-rule="evenodd"  stroke="rgb(231, 231, 231)" stroke-width="2px" stroke-linecap="butt" stroke-linejoin="miter" fill="rgb(255, 255, 255)"
 d="M16.000,1.000 C24.284,1.000 31.000,7.715 31.000,16.000 C31.000,24.284 24.284,31.000 16.000,31.000 C7.716,31.000 1.000,24.284 1.000,16.000 C1.000,7.715 7.716,1.000 16.000,1.000 Z"/>
<path fill-rule="evenodd"  fill="rgb(77, 174, 137)"
 d="M21.593,15.329 L17.077,20.577 C16.785,20.860 16.398,20.983 16.015,20.967 C15.632,20.983 15.246,20.860 14.953,20.577 L10.437,15.329 C9.884,14.795 9.884,13.928 10.437,13.393 C10.992,12.859 11.889,12.859 12.443,13.393 L16.015,17.544 L19.587,13.393 C20.141,12.859 21.039,12.859 21.593,13.393 C22.147,13.928 22.147,14.795 21.593,15.329 Z"/>
</svg>