<svg 
 xmlns="http://www.w3.org/2000/svg"
 xmlns:xlink="http://www.w3.org/1999/xlink"
 width="36.5px" height="36.5px">
<path fill-rule="evenodd"  stroke="rgb(66, 66, 66)" stroke-width="3px" stroke-linecap="butt" stroke-linejoin="miter" fill-opacity="0.2" fill="rgb(255, 255, 255)"
 d="M17.500,1.500 C26.336,1.500 33.500,8.663 33.500,17.500 C33.500,26.336 26.336,33.500 17.500,33.500 C8.663,33.500 1.500,26.336 1.500,17.500 C1.500,8.663 8.663,1.500 17.500,1.500 Z"/>
<path fill-rule="evenodd"  fill="rgb(66, 66, 66)"
 d="M23.750,20.500 L15.500,20.500 L15.500,19.000 C15.500,19.000 15.500,19.000 15.500,18.999 L15.500,9.999 C15.500,9.171 16.171,8.500 16.999,8.500 L17.000,8.500 C17.828,8.500 18.500,9.171 18.500,9.999 L18.500,17.500 L23.750,17.500 C24.578,17.500 25.250,18.171 25.250,19.000 C25.250,19.828 24.578,20.500 23.750,20.500 Z"/>
</svg>